<svg xmlns="http://www.w3.org/2000/svg" version="1.1" xmlns:xlink="http://www.w3.org/1999/xlink" xmlns:svgjs="http://svgjs.com/svgjs" width="1440" height="560" preserveAspectRatio="none" viewBox="0 0 1440 560"><g mask="url(&quot;#SvgjsMask1296&quot;)" fill="none"><rect width="1440" height="560" x="0" y="0" fill="rgba(238, 238, 238, 1)"></rect><g><path d="M6.5 279.5L19.5 266.5L32.5 266.5M97.5 292.5L110.5 279.5L123.5 279.5M-6.5 279.5L6.5 279.5L19.5 279.5L32.5 279.5L45.5 279.5L58.5 279.5L71.5 279.5L84.5 279.5L97.5 292.5L110.5 292.5L123.5 292.5L136.5 292.5L149.5 292.5" stroke="rgba(26, 95, 122, 0.25098039215686274)" stroke-width="2.17"></path><path d="M147.33 292.5 a2.17 2.17 0 1 0 4.34 0 a2.17 2.17 0 1 0 -4.34 0zM30.33 266.5 a2.17 2.17 0 1 0 4.34 0 a2.17 2.17 0 1 0 -4.34 0zM121.33 279.5 a2.17 2.17 0 1 0 4.34 0 a2.17 2.17 0 1 0 -4.34 0z" fill="rgba(26, 95, 122, 0.25098039215686274)"></path><path d="M357.5 305.5L370.5 292.5M227.5 305.5L240.5 318.5M253.5 305.5L266.5 292.5L279.5 292.5L292.5 279.5L305.5 279.5L318.5 279.5L331.5 266.5L344.5 253.5L357.5 253.5L370.5 240.5L383.5 227.5L396.5 227.5M292.5 305.5L305.5 292.5L318.5 292.5L331.5 292.5L344.5 292.5L357.5 292.5M201.5 305.5L214.5 292.5L227.5 292.5M136.5 305.5L149.5 318.5L162.5 318.5L175.5 318.5L188.5 318.5M318.5 305.5L331.5 318.5L344.5 318.5L357.5 318.5M110.5 305.5L123.5 318.5L136.5 318.5M-6.5 292.5L6.5 292.5L19.5 292.5L32.5 292.5L45.5 292.5L58.5 292.5L71.5 292.5L84.5 292.5L97.5 305.5L110.5 305.5L123.5 305.5L136.5 305.5L149.5 305.5L162.5 305.5L175.5 305.5L188.5 305.5L201.5 305.5L214.5 305.5L227.5 305.5L240.5 305.5L253.5 305.5L266.5 305.5L279.5 305.5L292.5 305.5L305.5 305.5L318.5 305.5L331.5 305.5L344.5 305.5L357.5 305.5L370.5 305.5L383.5 305.5L396.5 305.5L409.5 318.5L422.5 318.5L435.5 331.5" stroke="rgba(26, 95, 122, 0.25098039215686274)" stroke-width="2.17"></path><path d="M433.33 331.5 a2.17 2.17 0 1 0 4.34 0 a2.17 2.17 0 1 0 -4.34 0zM368.33 292.5 a2.17 2.17 0 1 0 4.34 0 a2.17 2.17 0 1 0 -4.34 0zM238.33 318.5 a2.17 2.17 0 1 0 4.34 0 a2.17 2.17 0 1 0 -4.34 0zM394.33 227.5 a2.17 2.17 0 1 0 4.34 0 a2.17 2.17 0 1 0 -4.34 0zM355.33 292.5 a2.17 2.17 0 1 0 4.34 0 a2.17 2.17 0 1 0 -4.34 0zM225.33 292.5 a2.17 2.17 0 1 0 4.34 0 a2.17 2.17 0 1 0 -4.34 0zM186.33 318.5 a2.17 2.17 0 1 0 4.34 0 a2.17 2.17 0 1 0 -4.34 0zM355.33 318.5 a2.17 2.17 0 1 0 4.34 0 a2.17 2.17 0 1 0 -4.34 0zM134.33 318.5 a2.17 2.17 0 1 0 4.34 0 a2.17 2.17 0 1 0 -4.34 0z" fill="rgba(26, 95, 122, 0.25098039215686274)"></path><path d="M58.5 266.5L71.5 253.5M45.5 266.5L58.5 253.5M-6.5 266.5L6.5 253.5L19.5 253.5L32.5 253.5L45.5 266.5L58.5 266.5L71.5 266.5" stroke="rgba(26, 95, 122, 0.25098039215686274)" stroke-width="2.17"></path><path d="M69.33 266.5 a2.17 2.17 0 1 0 4.34 0 a2.17 2.17 0 1 0 -4.34 0zM69.33 253.5 a2.17 2.17 0 1 0 4.34 0 a2.17 2.17 0 1 0 -4.34 0zM56.33 253.5 a2.17 2.17 0 1 0 4.34 0 a2.17 2.17 0 1 0 -4.34 0z" fill="rgba(26, 95, 122, 0.25098039215686274)"></path><path d="M45.5 305.5L58.5 305.5M214.5 331.5L227.5 318.5M240.5 331.5L253.5 331.5L266.5 331.5M266.5 318.5L279.5 318.5L292.5 318.5M84.5 331.5L97.5 318.5L110.5 318.5M-6.5 305.5L6.5 305.5L19.5 305.5L32.5 305.5L45.5 305.5L58.5 318.5L71.5 318.5L84.5 331.5L97.5 331.5L110.5 331.5L123.5 331.5L136.5 331.5L149.5 331.5L162.5 331.5L175.5 331.5L188.5 331.5L201.5 331.5L214.5 331.5L227.5 331.5L240.5 331.5L253.5 318.5L266.5 318.5L279.5 331.5L292.5 331.5L305.5 318.5" stroke="rgba(21, 152, 149, 0.3137254901960784)" stroke-width="2.17"></path><path d="M303.33 318.5 a2.17 2.17 0 1 0 4.34 0 a2.17 2.17 0 1 0 -4.34 0zM56.33 305.5 a2.17 2.17 0 1 0 4.34 0 a2.17 2.17 0 1 0 -4.34 0zM225.33 318.5 a2.17 2.17 0 1 0 4.34 0 a2.17 2.17 0 1 0 -4.34 0zM264.33 331.5 a2.17 2.17 0 1 0 4.34 0 a2.17 2.17 0 1 0 -4.34 0zM290.33 318.5 a2.17 2.17 0 1 0 4.34 0 a2.17 2.17 0 1 0 -4.34 0zM108.33 318.5 a2.17 2.17 0 1 0 4.34 0 a2.17 2.17 0 1 0 -4.34 0z" fill="rgba(21, 152, 149, 0.3137254901960784)"></path><path d="M6.5 240.5L19.5 240.5L32.5 240.5L45.5 253.5M136.5 240.5L149.5 253.5L162.5 253.5M149.5 240.5L162.5 227.5M-6.5 253.5L6.5 240.5L19.5 227.5L32.5 227.5L45.5 227.5L58.5 227.5L71.5 227.5L84.5 240.5L97.5 240.5L110.5 240.5L123.5 240.5L136.5 240.5L149.5 240.5L162.5 240.5" stroke="rgba(26, 95, 122, 0.25098039215686274)" stroke-width="2.17"></path><path d="M160.33 240.5 a2.17 2.17 0 1 0 4.34 0 a2.17 2.17 0 1 0 -4.34 0zM43.33 253.5 a2.17 2.17 0 1 0 4.34 0 a2.17 2.17 0 1 0 -4.34 0zM160.33 253.5 a2.17 2.17 0 1 0 4.34 0 a2.17 2.17 0 1 0 -4.34 0zM160.33 227.5 a2.17 2.17 0 1 0 4.34 0 a2.17 2.17 0 1 0 -4.34 0z" fill="rgba(26, 95, 122, 0.25098039215686274)"></path><path d="M435.5 344.5L448.5 357.5M123.5 344.5L136.5 357.5L149.5 357.5L162.5 357.5L175.5 357.5M292.5 344.5L305.5 357.5L318.5 357.5M214.5 344.5L227.5 357.5L240.5 357.5L253.5 357.5L266.5 357.5L279.5 357.5L292.5 370.5M448.5 344.5L461.5 331.5L474.5 331.5L487.5 331.5L500.5 331.5L513.5 331.5L526.5 344.5M422.5 344.5L435.5 357.5L448.5 370.5M344.5 344.5L357.5 331.5L370.5 331.5L383.5 331.5M357.5 344.5L370.5 357.5L383.5 357.5L396.5 357.5L409.5 357.5L422.5 357.5L435.5 370.5M474.5 344.5L487.5 357.5L500.5 357.5L513.5 357.5L526.5 357.5M-6.5 318.5L6.5 318.5L19.5 318.5L32.5 318.5L45.5 318.5L58.5 331.5L71.5 331.5L84.5 344.5L97.5 344.5L110.5 344.5L123.5 344.5L136.5 344.5L149.5 344.5L162.5 344.5L175.5 344.5L188.5 344.5L201.5 344.5L214.5 344.5L227.5 344.5L240.5 344.5L253.5 344.5L266.5 344.5L279.5 344.5L292.5 344.5L305.5 344.5L318.5 344.5L331.5 344.5L344.5 344.5L357.5 344.5L370.5 344.5L383.5 344.5L396.5 344.5L409.5 344.5L422.5 344.5L435.5 344.5L448.5 344.5L461.5 344.5L474.5 344.5L487.5 344.5" stroke="rgba(21, 152, 149, 0.3137254901960784)" stroke-width="2.17"></path><path d="M485.33 344.5 a2.17 2.17 0 1 0 4.34 0 a2.17 2.17 0 1 0 -4.34 0zM446.33 357.5 a2.17 2.17 0 1 0 4.34 0 a2.17 2.17 0 1 0 -4.34 0zM173.33 357.5 a2.17 2.17 0 1 0 4.34 0 a2.17 2.17 0 1 0 -4.34 0zM316.33 357.5 a2.17 2.17 0 1 0 4.34 0 a2.17 2.17 0 1 0 -4.34 0zM290.33 370.5 a2.17 2.17 0 1 0 4.34 0 a2.17 2.17 0 1 0 -4.34 0zM524.33 344.5 a2.17 2.17 0 1 0 4.34 0 a2.17 2.17 0 1 0 -4.34 0zM446.33 370.5 a2.17 2.17 0 1 0 4.34 0 a2.17 2.17 0 1 0 -4.34 0zM381.33 331.5 a2.17 2.17 0 1 0 4.34 0 a2.17 2.17 0 1 0 -4.34 0zM433.33 370.5 a2.17 2.17 0 1 0 4.34 0 a2.17 2.17 0 1 0 -4.34 0zM524.33 357.5 a2.17 2.17 0 1 0 4.34 0 a2.17 2.17 0 1 0 -4.34 0z" fill="rgba(21, 152, 149, 0.3137254901960784)"></path><path d="M474.5 175.5L487.5 175.5M331.5 201.5L344.5 188.5M292.5 201.5L305.5 188.5L318.5 188.5L331.5 188.5M162.5 201.5L175.5 214.5L188.5 214.5L201.5 214.5M214.5 201.5L227.5 188.5L240.5 188.5L253.5 188.5L266.5 188.5L279.5 188.5L292.5 188.5M305.5 201.5L318.5 214.5L331.5 214.5L344.5 214.5L357.5 214.5L370.5 201.5L383.5 201.5L396.5 201.5M266.5 201.5L279.5 214.5L292.5 214.5L305.5 214.5L318.5 227.5L331.5 227.5M513.5 188.5L526.5 175.5L539.5 175.5L552.5 175.5L565.5 175.5M201.5 201.5L214.5 188.5M97.5 201.5L110.5 201.5L123.5 201.5L136.5 201.5L149.5 201.5L162.5 214.5M-6.5 240.5L6.5 227.5L19.5 214.5L32.5 214.5L45.5 214.5L58.5 214.5L71.5 214.5L84.5 214.5L97.5 201.5L110.5 188.5L123.5 188.5L136.5 188.5L149.5 188.5L162.5 201.5L175.5 201.5L188.5 201.5L201.5 201.5L214.5 201.5L227.5 201.5L240.5 201.5L253.5 201.5L266.5 201.5L279.5 201.5L292.5 201.5L305.5 201.5L318.5 201.5L331.5 201.5L344.5 201.5L357.5 188.5L370.5 188.5L383.5 175.5L396.5 175.5L409.5 175.5L422.5 175.5L435.5 175.5L448.5 175.5L461.5 175.5L474.5 175.5L487.5 188.5L500.5 188.5L513.5 188.5L526.5 188.5L539.5 188.5" stroke="rgba(26, 95, 122, 0.25098039215686274)" stroke-width="2.17"></path><path d="M537.33 188.5 a2.17 2.17 0 1 0 4.34 0 a2.17 2.17 0 1 0 -4.34 0zM485.33 175.5 a2.17 2.17 0 1 0 4.34 0 a2.17 2.17 0 1 0 -4.34 0zM342.33 188.5 a2.17 2.17 0 1 0 4.34 0 a2.17 2.17 0 1 0 -4.34 0zM329.33 188.5 a2.17 2.17 0 1 0 4.34 0 a2.17 2.17 0 1 0 -4.34 0zM199.33 214.5 a2.17 2.17 0 1 0 4.34 0 a2.17 2.17 0 1 0 -4.34 0zM290.33 188.5 a2.17 2.17 0 1 0 4.34 0 a2.17 2.17 0 1 0 -4.34 0zM394.33 201.5 a2.17 2.17 0 1 0 4.34 0 a2.17 2.17 0 1 0 -4.34 0zM329.33 227.5 a2.17 2.17 0 1 0 4.34 0 a2.17 2.17 0 1 0 -4.34 0zM563.33 175.5 a2.17 2.17 0 1 0 4.34 0 a2.17 2.17 0 1 0 -4.34 0zM212.33 188.5 a2.17 2.17 0 1 0 4.34 0 a2.17 2.17 0 1 0 -4.34 0zM160.33 214.5 a2.17 2.17 0 1 0 4.34 0 a2.17 2.17 0 1 0 -4.34 0z" fill="rgba(26, 95, 122, 0.25098039215686274)"></path><path d="M-6.5 331.5L6.5 331.5L19.5 331.5L32.5 331.5" stroke="rgba(26, 95, 122, 0.25098039215686274)" stroke-width="2.17"></path><path d="M30.33 331.5 a2.17 2.17 0 1 0 4.34 0 a2.17 2.17 0 1 0 -4.34 0z" fill="rgba(26, 95, 122, 0.25098039215686274)"></path><path d="M305.5 175.5L318.5 162.5M266.5 175.5L279.5 162.5M188.5 175.5L201.5 162.5M253.5 175.5L266.5 162.5L279.5 149.5M214.5 175.5L227.5 162.5L240.5 162.5L253.5 162.5M71.5 188.5L84.5 201.5M162.5 175.5L175.5 188.5M58.5 188.5L71.5 201.5M-6.5 227.5L6.5 214.5L19.5 201.5L32.5 201.5L45.5 201.5L58.5 188.5L71.5 188.5L84.5 188.5L97.5 188.5L110.5 175.5L123.5 175.5L136.5 175.5L149.5 175.5L162.5 175.5L175.5 175.5L188.5 175.5L201.5 175.5L214.5 175.5L227.5 175.5L240.5 175.5L253.5 175.5L266.5 175.5L279.5 175.5L292.5 175.5L305.5 175.5L318.5 175.5L331.5 175.5L344.5 175.5L357.5 175.5L370.5 175.5L383.5 162.5L396.5 162.5L409.5 162.5L422.5 162.5L435.5 162.5" stroke="rgba(26, 95, 122, 0.25098039215686274)" stroke-width="2.17"></path><path d="M433.33 162.5 a2.17 2.17 0 1 0 4.34 0 a2.17 2.17 0 1 0 -4.34 0zM316.33 162.5 a2.17 2.17 0 1 0 4.34 0 a2.17 2.17 0 1 0 -4.34 0zM277.33 162.5 a2.17 2.17 0 1 0 4.34 0 a2.17 2.17 0 1 0 -4.34 0zM199.33 162.5 a2.17 2.17 0 1 0 4.34 0 a2.17 2.17 0 1 0 -4.34 0zM277.33 149.5 a2.17 2.17 0 1 0 4.34 0 a2.17 2.17 0 1 0 -4.34 0zM251.33 162.5 a2.17 2.17 0 1 0 4.34 0 a2.17 2.17 0 1 0 -4.34 0zM82.33 201.5 a2.17 2.17 0 1 0 4.34 0 a2.17 2.17 0 1 0 -4.34 0zM173.33 188.5 a2.17 2.17 0 1 0 4.34 0 a2.17 2.17 0 1 0 -4.34 0zM69.33 201.5 a2.17 2.17 0 1 0 4.34 0 a2.17 2.17 0 1 0 -4.34 0z" fill="rgba(26, 95, 122, 0.25098039215686274)"></path><path d="M97.5 357.5L110.5 357.5L123.5 357.5M188.5 370.5L201.5 357.5L214.5 357.5L227.5 370.5L240.5 370.5L253.5 370.5L266.5 370.5M-6.5 344.5L6.5 344.5L19.5 344.5L32.5 344.5L45.5 344.5L58.5 344.5L71.5 344.5L84.5 357.5L97.5 357.5L110.5 370.5L123.5 370.5L136.5 370.5L149.5 370.5L162.5 370.5L175.5 370.5L188.5 370.5L201.5 370.5" stroke="rgba(87, 197, 182, 0.3764705882352941)" stroke-width="2.17"></path><path d="M199.33 370.5 a2.17 2.17 0 1 0 4.34 0 a2.17 2.17 0 1 0 -4.34 0zM121.33 357.5 a2.17 2.17 0 1 0 4.34 0 a2.17 2.17 0 1 0 -4.34 0zM264.33 370.5 a2.17 2.17 0 1 0 4.34 0 a2.17 2.17 0 1 0 -4.34 0z" fill="rgba(87, 197, 182, 0.3764705882352941)"></path><path d="M175.5 162.5L188.5 162.5M201.5 136.5L214.5 149.5L227.5 149.5L240.5 149.5M435.5 149.5L448.5 136.5L461.5 136.5L474.5 136.5M422.5 149.5L435.5 136.5M357.5 162.5L370.5 149.5L383.5 136.5L396.5 136.5L409.5 136.5M188.5 149.5L201.5 149.5M344.5 162.5L357.5 149.5M279.5 136.5L292.5 136.5L305.5 136.5L318.5 136.5L331.5 136.5M448.5 149.5L461.5 162.5L474.5 162.5M-6.5 214.5L6.5 201.5L19.5 188.5L32.5 175.5L45.5 175.5L58.5 175.5L71.5 175.5L84.5 175.5L97.5 175.5L110.5 162.5L123.5 162.5L136.5 162.5L149.5 162.5L162.5 162.5L175.5 162.5L188.5 149.5L201.5 136.5L214.5 136.5L227.5 136.5L240.5 136.5L253.5 136.5L266.5 136.5L279.5 136.5L292.5 149.5L305.5 149.5L318.5 149.5L331.5 162.5L344.5 162.5L357.5 162.5L370.5 162.5L383.5 149.5L396.5 149.5L409.5 149.5L422.5 149.5L435.5 149.5L448.5 149.5L461.5 149.5" stroke="rgba(87, 197, 182, 0.3764705882352941)" stroke-width="2.17"></path><path d="M459.33 149.5 a2.17 2.17 0 1 0 4.34 0 a2.17 2.17 0 1 0 -4.34 0zM186.33 162.5 a2.17 2.17 0 1 0 4.34 0 a2.17 2.17 0 1 0 -4.34 0zM238.33 149.5 a2.17 2.17 0 1 0 4.34 0 a2.17 2.17 0 1 0 -4.34 0zM472.33 136.5 a2.17 2.17 0 1 0 4.34 0 a2.17 2.17 0 1 0 -4.34 0zM433.33 136.5 a2.17 2.17 0 1 0 4.34 0 a2.17 2.17 0 1 0 -4.34 0zM407.33 136.5 a2.17 2.17 0 1 0 4.34 0 a2.17 2.17 0 1 0 -4.34 0zM199.33 149.5 a2.17 2.17 0 1 0 4.34 0 a2.17 2.17 0 1 0 -4.34 0zM355.33 149.5 a2.17 2.17 0 1 0 4.34 0 a2.17 2.17 0 1 0 -4.34 0zM329.33 136.5 a2.17 2.17 0 1 0 4.34 0 a2.17 2.17 0 1 0 -4.34 0zM472.33 162.5 a2.17 2.17 0 1 0 4.34 0 a2.17 2.17 0 1 0 -4.34 0z" fill="rgba(87, 197, 182, 0.3764705882352941)"></path><path d="M45.5 357.5L58.5 370.5L71.5 370.5M-6.5 357.5L6.5 357.5L19.5 357.5L32.5 357.5L45.5 357.5L58.5 357.5L71.5 357.5L84.5 370.5L97.5 370.5L110.5 383.5L123.5 383.5L136.5 383.5L149.5 383.5L162.5 383.5L175.5 383.5L188.5 383.5L201.5 383.5L214.5 383.5L227.5 383.5L240.5 383.5" stroke="rgba(26, 95, 122, 0.25098039215686274)" stroke-width="2.17"></path><path d="M238.33 383.5 a2.17 2.17 0 1 0 4.34 0 a2.17 2.17 0 1 0 -4.34 0zM69.33 370.5 a2.17 2.17 0 1 0 4.34 0 a2.17 2.17 0 1 0 -4.34 0z" fill="rgba(26, 95, 122, 0.25098039215686274)"></path><path d="M383.5 123.5L396.5 110.5M422.5 123.5L435.5 110.5L448.5 110.5L461.5 110.5L474.5 110.5L487.5 110.5L500.5 110.5M500.5 123.5L513.5 136.5M305.5 123.5L318.5 123.5L331.5 123.5L344.5 123.5L357.5 123.5M370.5 110.5L383.5 110.5M409.5 123.5L422.5 110.5M487.5 123.5L500.5 136.5L513.5 149.5L526.5 149.5L539.5 149.5M-6.5 201.5L6.5 188.5L19.5 175.5L32.5 162.5L45.5 162.5L58.5 162.5L71.5 162.5L84.5 162.5L97.5 162.5L110.5 149.5L123.5 149.5L136.5 149.5L149.5 149.5L162.5 149.5L175.5 149.5L188.5 136.5L201.5 123.5L214.5 123.5L227.5 123.5L240.5 123.5L253.5 123.5L266.5 123.5L279.5 123.5L292.5 123.5L305.5 123.5L318.5 110.5L331.5 110.5L344.5 110.5L357.5 110.5L370.5 110.5L383.5 123.5L396.5 123.5L409.5 123.5L422.5 123.5L435.5 123.5L448.5 123.5L461.5 123.5L474.5 123.5L487.5 123.5L500.5 123.5L513.5 123.5L526.5 123.5" stroke="rgba(87, 197, 182, 0.3764705882352941)" stroke-width="2.17"></path><path d="M524.33 123.5 a2.17 2.17 0 1 0 4.34 0 a2.17 2.17 0 1 0 -4.34 0zM394.33 110.5 a2.17 2.17 0 1 0 4.34 0 a2.17 2.17 0 1 0 -4.34 0zM498.33 110.5 a2.17 2.17 0 1 0 4.34 0 a2.17 2.17 0 1 0 -4.34 0zM511.33 136.5 a2.17 2.17 0 1 0 4.34 0 a2.17 2.17 0 1 0 -4.34 0zM355.33 123.5 a2.17 2.17 0 1 0 4.34 0 a2.17 2.17 0 1 0 -4.34 0zM381.33 110.5 a2.17 2.17 0 1 0 4.34 0 a2.17 2.17 0 1 0 -4.34 0zM420.33 110.5 a2.17 2.17 0 1 0 4.34 0 a2.17 2.17 0 1 0 -4.34 0zM537.33 149.5 a2.17 2.17 0 1 0 4.34 0 a2.17 2.17 0 1 0 -4.34 0z" fill="rgba(87, 197, 182, 0.3764705882352941)"></path><path d="M-6.5 370.5L6.5 370.5L19.5 370.5L32.5 370.5" stroke="rgba(21, 152, 149, 0.3137254901960784)" stroke-width="2.17"></path><path d="M30.33 370.5 a2.17 2.17 0 1 0 4.34 0 a2.17 2.17 0 1 0 -4.34 0z" fill="rgba(21, 152, 149, 0.3137254901960784)"></path><path d="M253.5 110.5L266.5 97.5M279.5 110.5L292.5 97.5L305.5 97.5M149.5 136.5L162.5 123.5L175.5 110.5M-6.5 188.5L6.5 175.5L19.5 162.5L32.5 149.5L45.5 149.5L58.5 149.5L71.5 149.5L84.5 149.5L97.5 149.5L110.5 136.5L123.5 136.5L136.5 136.5L149.5 136.5L162.5 136.5L175.5 123.5L188.5 110.5L201.5 110.5L214.5 110.5L227.5 110.5L240.5 110.5L253.5 110.5L266.5 110.5L279.5 110.5L292.5 110.5L305.5 110.5L318.5 97.5L331.5 97.5L344.5 97.5L357.5 97.5L370.5 97.5L383.5 97.5L396.5 97.5L409.5 97.5L422.5 97.5L435.5 97.5L448.5 97.5" stroke="rgba(26, 95, 122, 0.25098039215686274)" stroke-width="2.17"></path><path d="M446.33 97.5 a2.17 2.17 0 1 0 4.34 0 a2.17 2.17 0 1 0 -4.34 0zM264.33 97.5 a2.17 2.17 0 1 0 4.34 0 a2.17 2.17 0 1 0 -4.34 0zM303.33 97.5 a2.17 2.17 0 1 0 4.34 0 a2.17 2.17 0 1 0 -4.34 0zM173.33 110.5 a2.17 2.17 0 1 0 4.34 0 a2.17 2.17 0 1 0 -4.34 0z" fill="rgba(26, 95, 122, 0.25098039215686274)"></path><path d="M84.5 383.5L97.5 396.5M-6.5 383.5L6.5 383.5L19.5 383.5L32.5 383.5L45.5 383.5L58.5 383.5L71.5 383.5L84.5 383.5L97.5 383.5L110.5 396.5L123.5 396.5L136.5 396.5L149.5 396.5" stroke="rgba(87, 197, 182, 0.3764705882352941)" stroke-width="2.17"></path><path d="M147.33 396.5 a2.17 2.17 0 1 0 4.34 0 a2.17 2.17 0 1 0 -4.34 0zM95.33 396.5 a2.17 2.17 0 1 0 4.34 0 a2.17 2.17 0 1 0 -4.34 0z" fill="rgba(87, 197, 182, 0.3764705882352941)"></path><path d="M513.5 58.5L526.5 71.5L539.5 71.5L552.5 71.5L565.5 71.5M526.5 58.5L539.5 45.5L552.5 45.5L565.5 45.5M396.5 84.5L409.5 71.5L422.5 71.5L435.5 71.5L448.5 71.5L461.5 71.5L474.5 71.5L487.5 71.5L500.5 58.5L513.5 45.5M71.5 136.5L84.5 123.5L97.5 123.5M383.5 84.5L396.5 71.5L409.5 58.5L422.5 58.5L435.5 58.5L448.5 58.5L461.5 58.5L474.5 58.5L487.5 58.5L500.5 45.5L513.5 32.5M474.5 84.5L487.5 97.5L500.5 97.5L513.5 97.5L526.5 97.5L539.5 97.5L552.5 97.5L565.5 97.5M461.5 84.5L474.5 97.5M500.5 71.5L513.5 71.5L526.5 84.5L539.5 84.5L552.5 84.5L565.5 84.5M149.5 97.5L162.5 110.5M370.5 84.5L383.5 71.5L396.5 58.5L409.5 45.5M487.5 84.5L500.5 84.5L513.5 84.5M-6.5 175.5L6.5 162.5L19.5 149.5L32.5 136.5L45.5 136.5L58.5 136.5L71.5 136.5L84.5 136.5L97.5 136.5L110.5 123.5L123.5 123.5L136.5 110.5L149.5 97.5L162.5 97.5L175.5 97.5L188.5 97.5L201.5 97.5L214.5 97.5L227.5 97.5L240.5 97.5L253.5 84.5L266.5 84.5L279.5 84.5L292.5 84.5L305.5 84.5L318.5 84.5L331.5 84.5L344.5 84.5L357.5 84.5L370.5 84.5L383.5 84.5L396.5 84.5L409.5 84.5L422.5 84.5L435.5 84.5L448.5 84.5L461.5 84.5L474.5 84.5L487.5 84.5L500.5 71.5L513.5 58.5L526.5 58.5L539.5 58.5L552.5 58.5" stroke="rgba(21, 152, 149, 0.3137254901960784)" stroke-width="2.17"></path><path d="M550.33 58.5 a2.17 2.17 0 1 0 4.34 0 a2.17 2.17 0 1 0 -4.34 0zM563.33 71.5 a2.17 2.17 0 1 0 4.34 0 a2.17 2.17 0 1 0 -4.34 0zM563.33 45.5 a2.17 2.17 0 1 0 4.34 0 a2.17 2.17 0 1 0 -4.34 0zM511.33 45.5 a2.17 2.17 0 1 0 4.34 0 a2.17 2.17 0 1 0 -4.34 0zM95.33 123.5 a2.17 2.17 0 1 0 4.34 0 a2.17 2.17 0 1 0 -4.34 0zM511.33 32.5 a2.17 2.17 0 1 0 4.34 0 a2.17 2.17 0 1 0 -4.34 0zM563.33 97.5 a2.17 2.17 0 1 0 4.34 0 a2.17 2.17 0 1 0 -4.34 0zM472.33 97.5 a2.17 2.17 0 1 0 4.34 0 a2.17 2.17 0 1 0 -4.34 0zM563.33 84.5 a2.17 2.17 0 1 0 4.34 0 a2.17 2.17 0 1 0 -4.34 0zM160.33 110.5 a2.17 2.17 0 1 0 4.34 0 a2.17 2.17 0 1 0 -4.34 0zM407.33 45.5 a2.17 2.17 0 1 0 4.34 0 a2.17 2.17 0 1 0 -4.34 0zM511.33 84.5 a2.17 2.17 0 1 0 4.34 0 a2.17 2.17 0 1 0 -4.34 0z" fill="rgba(21, 152, 149, 0.3137254901960784)"></path><path d="M149.5 409.5L162.5 422.5L175.5 422.5L188.5 422.5L201.5 422.5L214.5 409.5L227.5 409.5M370.5 396.5L383.5 409.5L396.5 409.5L409.5 409.5M435.5 383.5L448.5 396.5L461.5 396.5L474.5 396.5M123.5 409.5L136.5 422.5L149.5 422.5M240.5 396.5L253.5 409.5M409.5 396.5L422.5 396.5L435.5 396.5M357.5 396.5L370.5 383.5L383.5 383.5L396.5 383.5L409.5 383.5L422.5 370.5M19.5 396.5L32.5 396.5L45.5 396.5M344.5 396.5L357.5 409.5L370.5 409.5L383.5 422.5L396.5 422.5L409.5 422.5L422.5 422.5L435.5 422.5L448.5 422.5L461.5 409.5L474.5 409.5L487.5 409.5L500.5 409.5M-6.5 396.5L6.5 396.5L19.5 396.5L32.5 409.5L45.5 409.5L58.5 409.5L71.5 409.5L84.5 409.5L97.5 409.5L110.5 409.5L123.5 409.5L136.5 409.5L149.5 409.5L162.5 409.5L175.5 396.5L188.5 396.5L201.5 396.5L214.5 396.5L227.5 396.5L240.5 396.5L253.5 396.5L266.5 396.5L279.5 396.5L292.5 396.5L305.5 396.5L318.5 396.5L331.5 396.5L344.5 396.5L357.5 396.5L370.5 396.5L383.5 396.5L396.5 396.5L409.5 396.5L422.5 383.5L435.5 383.5L448.5 383.5L461.5 383.5L474.5 383.5" stroke="rgba(26, 95, 122, 0.25098039215686274)" stroke-width="2.17"></path><path d="M472.33 383.5 a2.17 2.17 0 1 0 4.34 0 a2.17 2.17 0 1 0 -4.34 0zM225.33 409.5 a2.17 2.17 0 1 0 4.34 0 a2.17 2.17 0 1 0 -4.34 0zM407.33 409.5 a2.17 2.17 0 1 0 4.34 0 a2.17 2.17 0 1 0 -4.34 0zM472.33 396.5 a2.17 2.17 0 1 0 4.34 0 a2.17 2.17 0 1 0 -4.34 0zM147.33 422.5 a2.17 2.17 0 1 0 4.34 0 a2.17 2.17 0 1 0 -4.34 0zM251.33 409.5 a2.17 2.17 0 1 0 4.34 0 a2.17 2.17 0 1 0 -4.34 0zM433.33 396.5 a2.17 2.17 0 1 0 4.34 0 a2.17 2.17 0 1 0 -4.34 0zM420.33 370.5 a2.17 2.17 0 1 0 4.34 0 a2.17 2.17 0 1 0 -4.34 0zM43.33 396.5 a2.17 2.17 0 1 0 4.34 0 a2.17 2.17 0 1 0 -4.34 0zM498.33 409.5 a2.17 2.17 0 1 0 4.34 0 a2.17 2.17 0 1 0 -4.34 0z" fill="rgba(26, 95, 122, 0.25098039215686274)"></path><path d="M188.5 84.5L201.5 71.5L214.5 71.5L227.5 71.5L240.5 71.5M331.5 71.5L344.5 58.5L357.5 58.5L370.5 58.5M175.5 84.5L188.5 71.5M58.5 123.5L71.5 123.5M318.5 71.5L331.5 58.5M305.5 71.5L318.5 58.5M-6.5 162.5L6.5 149.5L19.5 136.5L32.5 123.5L45.5 123.5L58.5 123.5L71.5 110.5L84.5 110.5L97.5 110.5L110.5 110.5L123.5 110.5L136.5 97.5L149.5 84.5L162.5 84.5L175.5 84.5L188.5 84.5L201.5 84.5L214.5 84.5L227.5 84.5L240.5 84.5L253.5 71.5L266.5 71.5L279.5 71.5L292.5 71.5L305.5 71.5L318.5 71.5L331.5 71.5L344.5 71.5L357.5 71.5" stroke="rgba(26, 95, 122, 0.25098039215686274)" stroke-width="2.17"></path><path d="M355.33 71.5 a2.17 2.17 0 1 0 4.34 0 a2.17 2.17 0 1 0 -4.34 0zM238.33 71.5 a2.17 2.17 0 1 0 4.34 0 a2.17 2.17 0 1 0 -4.34 0zM368.33 58.5 a2.17 2.17 0 1 0 4.34 0 a2.17 2.17 0 1 0 -4.34 0zM186.33 71.5 a2.17 2.17 0 1 0 4.34 0 a2.17 2.17 0 1 0 -4.34 0zM69.33 123.5 a2.17 2.17 0 1 0 4.34 0 a2.17 2.17 0 1 0 -4.34 0zM329.33 58.5 a2.17 2.17 0 1 0 4.34 0 a2.17 2.17 0 1 0 -4.34 0zM316.33 58.5 a2.17 2.17 0 1 0 4.34 0 a2.17 2.17 0 1 0 -4.34 0z" fill="rgba(26, 95, 122, 0.25098039215686274)"></path><path d="M201.5 435.5L214.5 448.5L227.5 461.5L240.5 474.5L253.5 474.5L266.5 474.5L279.5 474.5L292.5 474.5L305.5 474.5L318.5 474.5M448.5 448.5L461.5 435.5M162.5 435.5L175.5 448.5L188.5 448.5L201.5 448.5L214.5 461.5L227.5 474.5L240.5 487.5M474.5 448.5L487.5 435.5L500.5 435.5M214.5 435.5L227.5 435.5L240.5 435.5L253.5 435.5L266.5 435.5L279.5 435.5L292.5 435.5M526.5 448.5L539.5 435.5L552.5 435.5L565.5 435.5M6.5 409.5L19.5 422.5L32.5 435.5L45.5 435.5L58.5 435.5L71.5 448.5L84.5 448.5L97.5 448.5L110.5 448.5L123.5 461.5L136.5 461.5L149.5 461.5L162.5 448.5M461.5 448.5L474.5 461.5M435.5 448.5L448.5 461.5M500.5 448.5L513.5 461.5L526.5 461.5L539.5 461.5M357.5 435.5L370.5 435.5L383.5 435.5L396.5 435.5L409.5 435.5M-6.5 409.5L6.5 409.5L19.5 409.5L32.5 422.5L45.5 422.5L58.5 422.5L71.5 422.5L84.5 422.5L97.5 422.5L110.5 435.5L123.5 435.5L136.5 435.5L149.5 435.5L162.5 435.5L175.5 435.5L188.5 435.5L201.5 435.5L214.5 435.5L227.5 448.5L240.5 448.5L253.5 448.5L266.5 448.5L279.5 448.5L292.5 448.5L305.5 435.5L318.5 435.5L331.5 435.5L344.5 435.5L357.5 435.5L370.5 448.5L383.5 448.5L396.5 448.5L409.5 448.5L422.5 448.5L435.5 448.5L448.5 448.5L461.5 448.5L474.5 448.5L487.5 448.5L500.5 448.5L513.5 448.5L526.5 448.5L539.5 448.5L552.5 448.5" stroke="rgba(21, 152, 149, 0.3137254901960784)" stroke-width="2.17"></path><path d="M550.33 448.5 a2.17 2.17 0 1 0 4.34 0 a2.17 2.17 0 1 0 -4.34 0zM316.33 474.5 a2.17 2.17 0 1 0 4.34 0 a2.17 2.17 0 1 0 -4.34 0zM459.33 435.5 a2.17 2.17 0 1 0 4.34 0 a2.17 2.17 0 1 0 -4.34 0zM238.33 487.5 a2.17 2.17 0 1 0 4.34 0 a2.17 2.17 0 1 0 -4.34 0zM498.33 435.5 a2.17 2.17 0 1 0 4.34 0 a2.17 2.17 0 1 0 -4.34 0zM290.33 435.5 a2.17 2.17 0 1 0 4.34 0 a2.17 2.17 0 1 0 -4.34 0zM563.33 435.5 a2.17 2.17 0 1 0 4.34 0 a2.17 2.17 0 1 0 -4.34 0zM160.33 448.5 a2.17 2.17 0 1 0 4.34 0 a2.17 2.17 0 1 0 -4.34 0zM472.33 461.5 a2.17 2.17 0 1 0 4.34 0 a2.17 2.17 0 1 0 -4.34 0zM446.33 461.5 a2.17 2.17 0 1 0 4.34 0 a2.17 2.17 0 1 0 -4.34 0zM537.33 461.5 a2.17 2.17 0 1 0 4.34 0 a2.17 2.17 0 1 0 -4.34 0zM407.33 435.5 a2.17 2.17 0 1 0 4.34 0 a2.17 2.17 0 1 0 -4.34 0z" fill="rgba(21, 152, 149, 0.3137254901960784)"></path><path d="M84.5 97.5L97.5 84.5L110.5 84.5L123.5 84.5L136.5 71.5L149.5 58.5M45.5 110.5L58.5 97.5L71.5 84.5L84.5 84.5L97.5 71.5L110.5 71.5L123.5 71.5L136.5 58.5L149.5 45.5L162.5 45.5L175.5 45.5M318.5 45.5L331.5 32.5M344.5 45.5L357.5 32.5L370.5 32.5L383.5 32.5M266.5 58.5L279.5 45.5L292.5 45.5L305.5 32.5L318.5 32.5M162.5 71.5L175.5 71.5M188.5 58.5L201.5 45.5L214.5 45.5L227.5 45.5L240.5 45.5L253.5 45.5L266.5 45.5L279.5 32.5M-6.5 149.5L6.5 136.5L19.5 123.5L32.5 110.5L45.5 110.5L58.5 110.5L71.5 97.5L84.5 97.5L97.5 97.5L110.5 97.5L123.5 97.5L136.5 84.5L149.5 71.5L162.5 71.5L175.5 58.5L188.5 58.5L201.5 58.5L214.5 58.5L227.5 58.5L240.5 58.5L253.5 58.5L266.5 58.5L279.5 58.5L292.5 58.5L305.5 45.5L318.5 45.5L331.5 45.5L344.5 45.5L357.5 45.5L370.5 45.5" stroke="rgba(21, 152, 149, 0.3137254901960784)" stroke-width="2.17"></path><path d="M368.33 45.5 a2.17 2.17 0 1 0 4.34 0 a2.17 2.17 0 1 0 -4.34 0zM147.33 58.5 a2.17 2.17 0 1 0 4.34 0 a2.17 2.17 0 1 0 -4.34 0zM173.33 45.5 a2.17 2.17 0 1 0 4.34 0 a2.17 2.17 0 1 0 -4.34 0zM329.33 32.5 a2.17 2.17 0 1 0 4.34 0 a2.17 2.17 0 1 0 -4.34 0zM381.33 32.5 a2.17 2.17 0 1 0 4.34 0 a2.17 2.17 0 1 0 -4.34 0zM316.33 32.5 a2.17 2.17 0 1 0 4.34 0 a2.17 2.17 0 1 0 -4.34 0zM173.33 71.5 a2.17 2.17 0 1 0 4.34 0 a2.17 2.17 0 1 0 -4.34 0zM277.33 32.5 a2.17 2.17 0 1 0 4.34 0 a2.17 2.17 0 1 0 -4.34 0z" fill="rgba(21, 152, 149, 0.3137254901960784)"></path></g></g><defs><mask id="SvgjsMask1296"><rect width="1440" height="560" fill="#ffffff"></rect></mask></defs></svg>