<svg xmlns="http://www.w3.org/2000/svg" version="1.1" xmlns:xlink="http://www.w3.org/1999/xlink" xmlns:svgjs="http://svgjs.com/svgjs" width="1440" height="750" preserveAspectRatio="none" viewBox="0 0 1440 750"><g mask="url(&quot;#SvgjsMask4024&quot;)" fill="none"><rect width="1440" height="750" x="0" y="0" fill="rgba(238, 238, 238, 1)"></rect><path d="M69.32 -52.17L177.58 10.33L177.58 135.33L69.32 197.83L-38.94 135.33L-38.94 10.33zM69.32 322.83L177.58 385.33L177.58 510.33L69.32 572.83L-38.94 510.33L-38.94 385.33zM394.09 510.33L502.34 572.83L502.34 697.83L394.09 760.33L285.83 697.83L285.83 572.83zM1260.14 135.33L1368.39 197.83L1368.39 322.83L1260.14 385.33L1151.88 322.83L1151.88 197.83z" stroke="url(#SvgjsLinearGradient4025)" stroke-width="2"></path><path d="M56.82 -52.17 a12.5 12.5 0 1 0 25 0 a12.5 12.5 0 1 0 -25 0zM165.08 10.33 a12.5 12.5 0 1 0 25 0 a12.5 12.5 0 1 0 -25 0zM165.08 135.33 a12.5 12.5 0 1 0 25 0 a12.5 12.5 0 1 0 -25 0zM56.82 197.83 a12.5 12.5 0 1 0 25 0 a12.5 12.5 0 1 0 -25 0zM-51.44 135.33 a12.5 12.5 0 1 0 25 0 a12.5 12.5 0 1 0 -25 0zM-51.44 10.33 a12.5 12.5 0 1 0 25 0 a12.5 12.5 0 1 0 -25 0zM56.82 322.83 a12.5 12.5 0 1 0 25 0 a12.5 12.5 0 1 0 -25 0zM165.08 385.33 a12.5 12.5 0 1 0 25 0 a12.5 12.5 0 1 0 -25 0zM165.08 510.33 a12.5 12.5 0 1 0 25 0 a12.5 12.5 0 1 0 -25 0zM56.82 572.83 a12.5 12.5 0 1 0 25 0 a12.5 12.5 0 1 0 -25 0zM-51.44 510.33 a12.5 12.5 0 1 0 25 0 a12.5 12.5 0 1 0 -25 0zM-51.44 385.33 a12.5 12.5 0 1 0 25 0 a12.5 12.5 0 1 0 -25 0zM381.59 510.33 a12.5 12.5 0 1 0 25 0 a12.5 12.5 0 1 0 -25 0zM489.84 572.83 a12.5 12.5 0 1 0 25 0 a12.5 12.5 0 1 0 -25 0zM489.84 697.83 a12.5 12.5 0 1 0 25 0 a12.5 12.5 0 1 0 -25 0zM381.59 760.33 a12.5 12.5 0 1 0 25 0 a12.5 12.5 0 1 0 -25 0zM273.33 697.83 a12.5 12.5 0 1 0 25 0 a12.5 12.5 0 1 0 -25 0zM273.33 572.83 a12.5 12.5 0 1 0 25 0 a12.5 12.5 0 1 0 -25 0zM1247.64 135.33 a12.5 12.5 0 1 0 25 0 a12.5 12.5 0 1 0 -25 0zM1355.89 197.83 a12.5 12.5 0 1 0 25 0 a12.5 12.5 0 1 0 -25 0zM1355.89 322.83 a12.5 12.5 0 1 0 25 0 a12.5 12.5 0 1 0 -25 0zM1247.64 385.33 a12.5 12.5 0 1 0 25 0 a12.5 12.5 0 1 0 -25 0zM1139.38 322.83 a12.5 12.5 0 1 0 25 0 a12.5 12.5 0 1 0 -25 0zM1139.38 197.83 a12.5 12.5 0 1 0 25 0 a12.5 12.5 0 1 0 -25 0z" fill="url(#SvgjsLinearGradient4025)"></path><path d="M77.59 501.61L150.34 543.61L150.34 627.61L77.59 669.61L4.84 627.61L4.84 543.61zM368.58 -2.39L441.33 39.61L441.33 123.61L368.58 165.61L295.83 123.61L295.83 39.61zM441.33 375.61L514.08 417.61L514.08 501.61L441.33 543.61L368.58 501.61L368.58 417.61zM368.58 501.61L441.33 543.61L441.33 627.61L368.58 669.61L295.83 627.61L295.83 543.61zM514.08 -2.39L586.83 39.61L586.83 123.61L514.08 165.61L441.33 123.61L441.33 39.61zM514.08 249.61L586.83 291.61L586.83 375.61L514.08 417.61L441.33 375.61L441.33 291.61zM586.83 627.61L659.58 669.61L659.58 753.61L586.83 795.61L514.08 753.61L514.08 669.61zM659.58 249.61L732.32 291.61L732.32 375.61L659.58 417.61L586.83 375.61L586.83 291.61zM732.32 375.61L805.07 417.61L805.07 501.61L732.32 543.61L659.58 501.61L659.58 417.61zM950.57 -2.39L1023.32 39.61L1023.32 123.61L950.57 165.61L877.82 123.61L877.82 39.61zM1023.32 627.61L1096.06 669.61L1096.06 753.61L1023.32 795.61L950.57 753.61L950.57 669.61zM950.57 753.61L1023.32 795.61L1023.32 879.61L950.57 921.61L877.82 879.61L877.82 795.61zM1168.81 375.61L1241.56 417.61L1241.56 501.61L1168.81 543.61L1096.06 501.61L1096.06 417.61zM1241.56 249.61L1314.31 291.61L1314.31 375.61L1241.56 417.61L1168.81 375.61L1168.81 291.61zM1387.06 249.61L1459.81 291.61L1459.81 375.61L1387.06 417.61L1314.31 375.61L1314.31 291.61zM1459.81 627.61L1532.55 669.61L1532.55 753.61L1459.81 795.61L1387.06 753.61L1387.06 669.61z" stroke="url(#SvgjsLinearGradient4026)" stroke-width="2"></path></g><defs><mask id="SvgjsMask4024"><rect width="1440" height="750" fill="#ffffff"></rect></mask><linearGradient x1="172.512" y1="922.5" x2="1267.488" y2="-172.5" gradientUnits="userSpaceOnUse" id="SvgjsLinearGradient4025"><stop stop-color="rgba(0, 43, 91, 0.21)" offset="0.33"></stop><stop stop-color="rgba(21, 152, 149, 0.36)" offset="0.68"></stop></linearGradient><linearGradient x1="172.512" y1="922.5" x2="1267.488" y2="-172.5" gradientUnits="userSpaceOnUse" id="SvgjsLinearGradient4026"><stop stop-color="rgba(87, 197, 182, 0.3)" offset="0"></stop><stop stop-color="rgba(26, 95, 122, 0.28)" offset="0.73"></stop></linearGradient></defs></svg>