<svg xmlns="http://www.w3.org/2000/svg" version="1.1" xmlns:xlink="http://www.w3.org/1999/xlink" xmlns:svgjs="http://svgjs.com/svgjs" width="1440" height="725" preserveAspectRatio="none" viewBox="0 0 1440 725"><g mask="url(&quot;#SvgjsMask1225&quot;)" fill="none"><rect width="1440" height="725" x="0" y="0" fill="rgba(238, 238, 238, 1)"></rect><path d="M712 85L311 486" stroke-width="6" stroke="url(#SvgjsLinearGradient1226)" stroke-linecap="round" class="TopRight"></path><path d="M613 64L119 558" stroke-width="10" stroke="url(#SvgjsLinearGradient1227)" stroke-linecap="round" class="TopRight"></path><path d="M1359 659L1042 976" stroke-width="10" stroke="url(#SvgjsLinearGradient1228)" stroke-linecap="round" class="BottomLeft"></path><path d="M1403 469L950 922" stroke-width="10" stroke="url(#SvgjsLinearGradient1226)" stroke-linecap="round" class="TopRight"></path><path d="M77 56L-390 523" stroke-width="8" stroke="url(#SvgjsLinearGradient1228)" stroke-linecap="round" class="BottomLeft"></path><path d="M163 452L461 154" stroke-width="6" stroke="url(#SvgjsLinearGradient1229)" stroke-linecap="round" class="TopRight"></path><path d="M908 346L1210 44" stroke-width="8" stroke="url(#SvgjsLinearGradient1226)" stroke-linecap="round" class="TopRight"></path><path d="M1232 583L741 1074" stroke-width="10" stroke="url(#SvgjsLinearGradient1228)" stroke-linecap="round" class="BottomLeft"></path><path d="M884 483L668 699" stroke-width="10" stroke="url(#SvgjsLinearGradient1227)" stroke-linecap="round" class="TopRight"></path><path d="M1347 494L1056 785" stroke-width="10" stroke="url(#SvgjsLinearGradient1230)" stroke-linecap="round" class="BottomLeft"></path><path d="M664 137L886 -85" stroke-width="6" stroke="url(#SvgjsLinearGradient1230)" stroke-linecap="round" class="BottomLeft"></path><path d="M252 76L594 -266" stroke-width="8" stroke="url(#SvgjsLinearGradient1227)" stroke-linecap="round" class="TopRight"></path><path d="M692 650L1180 162" stroke-width="6" stroke="url(#SvgjsLinearGradient1228)" stroke-linecap="round" class="BottomLeft"></path><path d="M37 93L-490 620" stroke-width="8" stroke="url(#SvgjsLinearGradient1228)" stroke-linecap="round" class="BottomLeft"></path><path d="M347 642L121 868" stroke-width="10" stroke="url(#SvgjsLinearGradient1228)" stroke-linecap="round" class="BottomLeft"></path><path d="M1231 263L982 512" stroke-width="6" stroke="url(#SvgjsLinearGradient1231)" stroke-linecap="round" class="BottomLeft"></path><path d="M850 322L1367 -195" stroke-width="6" stroke="url(#SvgjsLinearGradient1226)" stroke-linecap="round" class="TopRight"></path><path d="M1288 419L756 951" stroke-width="6" stroke="url(#SvgjsLinearGradient1228)" stroke-linecap="round" class="BottomLeft"></path><path d="M235 123L436 -78" stroke-width="8" stroke="url(#SvgjsLinearGradient1228)" stroke-linecap="round" class="BottomLeft"></path><path d="M538 513L996 55" stroke-width="8" stroke="url(#SvgjsLinearGradient1230)" stroke-linecap="round" class="BottomLeft"></path><path d="M4 501L-325 830" stroke-width="6" stroke="url(#SvgjsLinearGradient1230)" stroke-linecap="round" class="BottomLeft"></path><path d="M77 526L540 63" stroke-width="6" stroke="url(#SvgjsLinearGradient1226)" stroke-linecap="round" class="TopRight"></path><path d="M606 21L162 465" stroke-width="8" stroke="url(#SvgjsLinearGradient1228)" stroke-linecap="round" class="BottomLeft"></path><path d="M793 57L254 596" stroke-width="6" stroke="url(#SvgjsLinearGradient1231)" stroke-linecap="round" class="BottomLeft"></path><path d="M1052 338L1362 28" stroke-width="8" stroke="url(#SvgjsLinearGradient1230)" stroke-linecap="round" class="BottomLeft"></path><path d="M999 240L533 706" stroke-width="6" stroke="url(#SvgjsLinearGradient1229)" stroke-linecap="round" class="TopRight"></path><path d="M559 35L851 -257" stroke-width="6" stroke="url(#SvgjsLinearGradient1226)" stroke-linecap="round" class="TopRight"></path><path d="M1177 412L910 679" stroke-width="10" stroke="url(#SvgjsLinearGradient1228)" stroke-linecap="round" class="BottomLeft"></path><path d="M490 607L243 854" stroke-width="6" stroke="url(#SvgjsLinearGradient1227)" stroke-linecap="round" class="TopRight"></path><path d="M835 515L1277 73" stroke-width="10" stroke="url(#SvgjsLinearGradient1229)" stroke-linecap="round" class="TopRight"></path><path d="M1069 282L1552 -201" stroke-width="6" stroke="url(#SvgjsLinearGradient1227)" stroke-linecap="round" class="TopRight"></path><path d="M1138 698L881 955" stroke-width="6" stroke="url(#SvgjsLinearGradient1229)" stroke-linecap="round" class="TopRight"></path><path d="M1074 125L712 487" stroke-width="6" stroke="url(#SvgjsLinearGradient1226)" stroke-linecap="round" class="TopRight"></path><path d="M1088 661L1484 265" stroke-width="6" stroke="url(#SvgjsLinearGradient1228)" stroke-linecap="round" class="BottomLeft"></path><path d="M819 147L451 515" stroke-width="8" stroke="url(#SvgjsLinearGradient1227)" stroke-linecap="round" class="TopRight"></path><path d="M671 483L353 801" stroke-width="6" stroke="url(#SvgjsLinearGradient1226)" stroke-linecap="round" class="TopRight"></path><path d="M643 602L278 967" stroke-width="8" stroke="url(#SvgjsLinearGradient1230)" stroke-linecap="round" class="BottomLeft"></path><path d="M896 56L1299 -347" stroke-width="6" stroke="url(#SvgjsLinearGradient1229)" stroke-linecap="round" class="TopRight"></path><path d="M1317 66L1639 -256" stroke-width="6" stroke="url(#SvgjsLinearGradient1226)" stroke-linecap="round" class="TopRight"></path><path d="M142 112L-387 641" stroke-width="10" stroke="url(#SvgjsLinearGradient1227)" stroke-linecap="round" class="TopRight"></path><path d="M1402 16L1788 -370" stroke-width="8" stroke="url(#SvgjsLinearGradient1230)" stroke-linecap="round" class="BottomLeft"></path></g><defs><mask id="SvgjsMask1225"><rect width="1440" height="725" fill="#ffffff"></rect></mask><linearGradient x1="0%" y1="100%" x2="100%" y2="0%" id="SvgjsLinearGradient1226"><stop stop-color="rgba(21, 152, 149, 0)" offset="0"></stop><stop stop-color="rgba(21, 152, 149, 0.3137254901960784)" offset="1"></stop></linearGradient><linearGradient x1="0%" y1="100%" x2="100%" y2="0%" id="SvgjsLinearGradient1227"><stop stop-color="rgba(87, 197, 182, 0)" offset="0"></stop><stop stop-color="rgba(87, 197, 182, 0.4392156862745098)" offset="1"></stop></linearGradient><linearGradient x1="100%" y1="0%" x2="0%" y2="100%" id="SvgjsLinearGradient1228"><stop stop-color="rgba(21, 152, 149, 0)" offset="0"></stop><stop stop-color="rgba(21, 152, 149, 0.3137254901960784)" offset="1"></stop></linearGradient><linearGradient x1="0%" y1="100%" x2="100%" y2="0%" id="SvgjsLinearGradient1229"><stop stop-color="rgba(26, 95, 122, 0)" offset="0"></stop><stop stop-color="rgba(26, 95, 122, 0.3137254901960784)" offset="1"></stop></linearGradient><linearGradient x1="100%" y1="0%" x2="0%" y2="100%" id="SvgjsLinearGradient1230"><stop stop-color="rgba(87, 197, 182, 0)" offset="0"></stop><stop stop-color="rgba(87, 197, 182, 0.4392156862745098)" offset="1"></stop></linearGradient><linearGradient x1="100%" y1="0%" x2="0%" y2="100%" id="SvgjsLinearGradient1231"><stop stop-color="rgba(26, 95, 122, 0)" offset="0"></stop><stop stop-color="rgba(26, 95, 122, 0.3137254901960784)" offset="1"></stop></linearGradient></defs></svg>