<svg xmlns="http://www.w3.org/2000/svg" version="1.1" xmlns:xlink="http://www.w3.org/1999/xlink" xmlns:svgjs="http://svgjs.com/svgjs" width="1440" height="700" preserveAspectRatio="none" viewBox="0 0 1440 700"><g mask="url(&quot;#SvgjsMask1125&quot;)" fill="none"><rect width="1440" height="700" x="0" y="0" fill="rgba(238, 238, 238, 1)"></rect><path d="M -526.5242260971975,509 C -430.52,430.6 -238.52,131.4 -46.52422609719746,117 C 145.48,102.6 241.48,420.2 433.47577390280253,437 C 625.48,453.8 721.48,171.2 913.4757739028025,201 C 1105.48,230.8 1288.17,581.8 1393.4757739028025,586 C 1498.78,590.2 1430.7,294.8 1440,222" stroke="rgba(21, 152, 149, 0.18823529411764706)" stroke-width="2"></path><path d="M -79.90554484387997,494 C 16.09,436 208.09,213.6 400.09445515612003,204 C 592.09,194.4 688.09,428 880.09445515612,446 C 1072.09,464 1168.09,304 1360.0944551561201,294 C 1552.09,284 1824.11,428.2 1840.0944551561201,396 C 1856.08,363.8 1520.02,185.6 1440,133" stroke="rgba(26, 95, 122, 0.12549019607843137)" stroke-width="2"></path><path d="M -281.59364588049425,471 C -185.59,400.4 6.41,89.4 198.40635411950575,118 C 390.41,146.6 486.41,616.8 678.4063541195057,614 C 870.41,611.2 966.41,156.6 1158.4063541195057,104 C 1350.41,51.4 1582.09,349.2 1638.4063541195057,351 C 1694.73,352.8 1479.68,160.6 1440,113" stroke="rgba(87, 197, 182, 0.25098039215686274)" stroke-width="2"></path><path d="M -587.535656589204,477 C -491.54,423.6 -299.54,194.2 -107.53565658920397,210 C 84.46,225.8 180.46,573.2 372.464343410796,556 C 564.46,538.8 660.46,136.2 852.464343410796,124 C 1044.46,111.8 1214.96,503.6 1332.4643434107961,495 C 1449.97,486.4 1418.49,163.8 1440,81" stroke="rgba(21, 152, 149, 0.18823529411764706)" stroke-width="2"></path><path d="M -272.1225950559376,411 C -176.12,369.2 15.88,176 207.87740494406236,202 C 399.88,228 495.88,542.2 687.8774049440624,541 C 879.88,539.8 975.88,212.6 1167.8774049440624,196 C 1359.88,179.4 1593.45,454.6 1647.8774049440624,458 C 1702.3,461.4 1481.58,262 1440,213" stroke="rgba(21, 152, 149, 0.18823529411764706)" stroke-width="2"></path><path d="M -754.699810480494,438 C -658.7,400 -466.7,234 -274.69981048049397,248 C -82.7,262 13.3,499.4 205.30018951950603,508 C 397.3,516.6 493.3,272 685.300189519506,291 C 877.3,310 1014.36,628.4 1165.3001895195061,603 C 1316.24,577.6 1385.06,251.8 1440,164" stroke="rgba(87, 197, 182, 0.25098039215686274)" stroke-width="2"></path><path d="M -70.66710680804141,186 C 25.33,225 217.33,396.2 409.3328931919586,381 C 601.33,365.8 697.33,80.8 889.3328931919586,110 C 1081.33,139.2 1177.33,494.8 1369.3328931919586,527 C 1561.33,559.2 1835.2,275.4 1849.3328931919586,271 C 1863.47,266.6 1521.87,458.2 1440,505" stroke="rgba(87, 197, 182, 0.25098039215686274)" stroke-width="2"></path><path d="M -760.9005369226795,327 C -664.9,347.2 -472.9,474.6 -280.9005369226795,428 C -88.9,381.4 7.1,105.8 199.09946307732048,94 C 391.1,82.2 487.1,330.8 679.0994630773205,369 C 871.1,407.2 1006.92,284.8 1159.0994630773205,285 C 1311.28,285.2 1383.82,353 1440,370" stroke="rgba(26, 95, 122, 0.12549019607843137)" stroke-width="2"></path></g><defs><mask id="SvgjsMask1125"><rect width="1440" height="700" fill="#ffffff"></rect></mask></defs></svg>